# xmcd CD database file
#
# Track frame offsets:
#	150
#	15442
#	32214
#	51098
#	67702
#	83961
#	99251
#	115393
#	130787
#	147931
#	166970
#
# Disc length: 2488 seconds
#
# Revision: 0
# Processed by: cddbd v1.5.1PL2 Copyright (c) Steve Scherf et al.
# Submitted via: CDex 1.50
#
DISCID=8609b60b
DTITLE=Rob Russell - Debut Album
DYEAR=2005
DGENRE=Country
TTITLE0=Beer Bottle Brown
TTITLE1=The Rock In The Sand
TTITLE2=Mr. Rodeo
TTITLE3=Our Guardian Angel
TTITLE4=The Old Man
TTITLE5=Willie B. Boogie
TTITLE6=A Silent Movie
TTITLE7=High Price To Pay
TTITLE8=Still Going Down
TTITLE9=Be My Bride
TTITLE10=Can't You See
EXTD=YEAR: 2005
EXTT0=
EXTT1=
EXTT2=
EXTT3=
EXTT4=
EXTT5=
EXTT6=
EXTT7=
EXTT8=
EXTT9=
EXTT10=
PLAYORDER=
